<svg xmlns="http://www.w3.org/2000/svg" xmlns:xlink="http://www.w3.org/1999/xlink" width="48" zoomAndPan="magnify" viewBox="0 0 36 36.000001" height="48" preserveAspectRatio="xMidYMid meet" version="1.0"><defs><clipPath id="e3c01bd032"><path d="M 4.128906 3.503906 L 31.859375 3.503906 L 31.859375 31.234375 L 4.128906 31.234375 Z M 4.128906 3.503906 " clip-rule="nonzero"/></clipPath></defs><g clip-path="url(#e3c01bd032)"><path fill="#ffffff" d="M 31.871094 7.675781 C 31.871094 6.667969 31.476562 5.71875 30.761719 5.019531 C 29.273438 3.53125 26.847656 3.53125 25.359375 5.019531 L 23.78125 6.597656 L 6.832031 6.597656 C 6.101562 6.597656 5.429688 6.875 4.917969 7.382812 C 4.40625 7.894531 4.128906 8.582031 4.128906 9.296875 L 4.128906 28.789062 C 4.128906 29.519531 4.40625 30.191406 4.917969 30.703125 C 5.429688 31.210938 6.113281 31.488281 6.832031 31.488281 L 26.320312 31.488281 C 27.050781 31.488281 27.722656 31.210938 28.234375 30.703125 C 28.746094 30.191406 29.023438 29.503906 29.023438 28.789062 L 29.023438 12.058594 L 29.578125 11.5 L 30.746094 10.332031 C 31.476562 9.632812 31.871094 8.683594 31.871094 7.675781 Z M 17.34375 22.234375 L 15.808594 20.699219 L 24.613281 11.894531 C 24.816406 11.691406 24.816406 11.339844 24.613281 11.136719 C 24.410156 10.933594 24.058594 10.933594 23.855469 11.136719 L 15.050781 19.941406 L 13.515625 18.394531 L 24.628906 7.28125 L 28.453125 11.109375 Z M 13.136719 19.546875 L 16.203125 22.613281 L 12.625 23.125 Z M 27.957031 28.804688 C 27.957031 29.242188 27.78125 29.652344 27.476562 29.957031 C 27.167969 30.265625 26.761719 30.4375 26.320312 30.4375 L 6.832031 30.4375 C 6.390625 30.4375 5.984375 30.265625 5.675781 29.957031 C 5.371094 29.652344 5.195312 29.242188 5.195312 28.804688 L 5.195312 9.296875 C 5.195312 8.859375 5.371094 8.449219 5.675781 8.144531 C 5.984375 7.835938 6.390625 7.660156 6.832031 7.660156 L 22.703125 7.660156 L 12.363281 18.015625 C 12.320312 18.058594 12.277344 18.117188 12.261719 18.175781 C 12.246094 18.1875 12.246094 18.21875 12.246094 18.234375 C 12.234375 18.261719 12.234375 18.292969 12.21875 18.304688 L 11.457031 23.664062 C 11.429688 23.839844 11.488281 24 11.605469 24.117188 C 11.707031 24.21875 11.839844 24.277344 11.984375 24.277344 C 12.011719 24.277344 12.027344 24.277344 12.058594 24.277344 L 17.414062 23.519531 C 17.445312 23.519531 17.472656 23.503906 17.488281 23.488281 C 17.503906 23.488281 17.53125 23.472656 17.546875 23.472656 C 17.605469 23.445312 17.664062 23.417969 17.707031 23.371094 L 27.941406 13.136719 L 27.941406 28.804688 Z M 29.214844 10.363281 L 25.386719 6.523438 L 26.132812 5.777344 C 26.644531 5.265625 27.328125 4.976562 28.058594 4.976562 C 28.789062 4.976562 29.476562 5.253906 29.988281 5.777344 C 30.496094 6.289062 30.773438 6.960938 30.773438 7.675781 C 30.773438 8.390625 30.496094 9.0625 29.988281 9.574219 Z M 29.214844 10.363281 " fill-opacity="1" fill-rule="nonzero"/></g></svg>