<svg xmlns="http://www.w3.org/2000/svg" xmlns:xlink="http://www.w3.org/1999/xlink" width="48" zoomAndPan="magnify" viewBox="0 0 36 36.000001" height="48" preserveAspectRatio="xMidYMid meet" version="1.0"><defs><clipPath id="ffdad08dd5"><path d="M 5.742188 3.503906 L 30.550781 3.503906 L 30.550781 11 L 5.742188 11 Z M 5.742188 3.503906 " clip-rule="nonzero"/></clipPath><clipPath id="e2d80d1221"><path d="M 7 12 L 29 12 L 29 31.234375 L 7 31.234375 Z M 7 12 " clip-rule="nonzero"/></clipPath></defs><g clip-path="url(#ffdad08dd5)"><path fill="#ffffff" d="M 29.378906 6.9375 L 23.25 6.9375 L 23.25 4.378906 C 23.25 3.898438 22.855469 3.503906 22.375 3.503906 L 13.621094 3.503906 C 13.140625 3.503906 12.746094 3.898438 12.746094 4.378906 L 12.746094 6.9375 L 6.617188 6.9375 C 6.136719 6.9375 5.742188 7.332031 5.742188 7.8125 L 5.742188 9.566406 C 5.742188 10.046875 6.136719 10.441406 6.617188 10.441406 L 29.378906 10.441406 C 29.859375 10.441406 30.253906 10.046875 30.253906 9.566406 L 30.253906 7.8125 C 30.253906 7.332031 29.859375 6.9375 29.378906 6.9375 Z M 29.378906 6.9375 " fill-opacity="1" fill-rule="nonzero"/></g><g clip-path="url(#e2d80d1221)"><path fill="#ffffff" d="M 9.59375 30.75 C 9.636719 31.1875 10.007812 31.515625 10.46875 31.515625 L 25.546875 31.515625 C 25.984375 31.515625 26.359375 31.1875 26.425781 30.75 L 28.523438 12.277344 L 7.492188 12.277344 Z M 21.5 27.90625 L 23.03125 15.671875 C 23.097656 15.191406 23.535156 14.863281 24.015625 14.90625 C 24.496094 14.972656 24.828125 15.410156 24.78125 15.890625 L 23.25 28.125 C 23.183594 28.5625 22.8125 28.890625 22.375 28.890625 C 22.332031 28.890625 22.308594 28.890625 22.265625 28.890625 C 21.785156 28.824219 21.457031 28.386719 21.5 27.90625 Z M 17.121094 15.78125 C 17.121094 15.300781 17.515625 14.90625 17.996094 14.90625 C 18.480469 14.90625 18.875 15.300781 18.875 15.78125 L 18.875 28.015625 C 18.875 28.496094 18.480469 28.890625 17.996094 28.890625 C 17.515625 28.890625 17.121094 28.496094 17.121094 28.015625 Z M 11.980469 14.90625 C 12.460938 14.839844 12.898438 15.191406 12.964844 15.671875 L 14.496094 27.90625 C 14.5625 28.386719 14.210938 28.824219 13.730469 28.890625 C 13.6875 28.890625 13.664062 28.890625 13.621094 28.890625 C 13.183594 28.890625 12.8125 28.5625 12.746094 28.125 L 11.210938 15.890625 C 11.167969 15.410156 11.496094 14.972656 11.980469 14.90625 Z M 11.980469 14.90625 " fill-opacity="1" fill-rule="nonzero"/></g></svg>