<svg xmlns="http://www.w3.org/2000/svg" xmlns:xlink="http://www.w3.org/1999/xlink" width="48" zoomAndPan="magnify" viewBox="0 0 36 36.000001" height="48" preserveAspectRatio="xMidYMid meet" version="1.0"><defs><clipPath id="d4db8db7f6"><path d="M 6.445312 10.410156 L 29.796875 10.410156 L 29.796875 24.273438 L 6.445312 24.273438 Z M 6.445312 10.410156 " clip-rule="nonzero"/></clipPath></defs><g clip-path="url(#d4db8db7f6)"><path fill="#000000" d="M 22.738281 10.402344 C 22.472656 10.398438 22.230469 10.550781 22.125 10.78125 C 22.019531 11.019531 22.074219 11.289062 22.257812 11.472656 L 27.441406 16.683594 L -0.660156 16.683594 C -0.894531 16.679688 -1.113281 16.800781 -1.226562 16.996094 C -1.347656 17.191406 -1.347656 17.429688 -1.226562 17.628906 C -1.113281 17.824219 -0.894531 17.941406 -0.660156 17.9375 L 27.441406 17.9375 L 22.257812 23.152344 C 22.011719 23.402344 22.019531 23.796875 22.28125 24.039062 C 22.539062 24.277344 22.949219 24.269531 23.199219 24.019531 L 29.867188 17.3125 L 23.199219 10.605469 C 23.078125 10.480469 22.910156 10.40625 22.738281 10.402344 Z M 22.738281 10.402344 " fill-opacity="1" fill-rule="nonzero"/></g></svg>